<?xml version="1.0" encoding="UTF-8"?><svg id="Layer_2" xmlns="http://www.w3.org/2000/svg" viewBox="0 0 111.77 47.06"><g id="LOGOS_PG_2"><polygon points="32.35 44.12 26.47 44.12 26.47 35.3 8.82 35.3 8.82 32.35 5.88 32.35 5.88 29.41 2.94 29.41 2.94 5.88 5.88 5.88 5.88 29.41 8.82 29.41 8.82 32.35 29.41 32.35 29.41 41.18 32.35 41.18 32.35 44.12" style="fill:#020202; stroke-width:0px;"/><rect x="32.35" y="38.24" width="2.94" height="2.94" style="fill:#020202; stroke-width:0px;"/><polygon points="38.24 38.24 35.3 38.24 35.3 32.35 105.89 32.35 105.89 35.3 38.24 35.3 38.24 38.24" style="fill:#020202; stroke-width:0px;"/><rect x="105.89" y="29.41" width="2.94" height="2.94" style="fill:#020202; stroke-width:0px;"/><polygon points="111.77 29.41 108.83 29.41 108.83 5.88 105.89 5.88 105.89 2.94 8.82 2.94 8.82 0 105.89 0 105.89 2.94 108.83 2.94 108.83 5.88 111.77 5.88 111.77 29.41" style="fill:#020202; stroke-width:0px;"/><rect x="5.88" y="2.94" width="2.94" height="2.94" style="fill:#020202; stroke-width:0px;"/><polygon points="32.35 41.18 29.41 41.18 29.41 32.35 8.82 32.35 8.82 29.41 5.88 29.41 5.88 5.88 8.82 5.88 8.82 2.94 105.89 2.94 105.89 5.88 108.83 5.88 108.83 29.41 105.89 29.41 105.89 32.35 35.3 32.35 35.3 38.24 32.35 38.24 32.35 41.18" style="fill:#00c08b; stroke-width:0px;"/><polygon points="32.35 41.18 29.41 41.18 29.41 32.35 8.82 32.35 8.82 29.41 5.88 29.41 5.88 5.88 8.82 5.88 8.82 2.94 105.89 2.94 105.89 5.88 108.83 5.88 108.83 29.41 105.89 29.41 105.89 32.35 35.3 32.35 35.3 38.24 32.35 38.24 32.35 41.18" style="fill:#00c08b; stroke-width:0px;"/><polygon points="29.41 47.06 23.53 47.06 23.53 38.24 5.88 38.24 5.88 35.3 2.94 35.3 2.94 32.35 0 32.35 0 8.82 2.94 8.82 2.94 29.41 5.88 29.41 5.88 32.35 8.82 32.35 8.82 35.3 26.47 35.3 26.47 44.12 29.41 44.12 29.41 47.06" style="fill:#007f6e; stroke-width:0px;"/><rect x="32.35" y="41.18" width="2.94" height="2.94" style="fill:#007f6e; stroke-width:0px;"/><rect x="35.3" y="38.24" width="2.94" height="2.94" style="fill:#007f6e; stroke-width:0px;"/><rect x="38.24" y="35.3" width="64.71" height="2.94" style="fill:#007f6e; stroke-width:0px;"/><path d="M22.78,22.83h-4.23l-3.1-11.3h3.56l1.62,8.18h.21l1.93-8.18h3.43l-3.43,11.3Z" style="fill:#fff; stroke-width:0px;"/><path d="M33.24,19.46h-4.58c.08.35.28.69.59.89.36.21.77.31,1.21.28.85-.05,1.68-.18,2.5-.44l.2-.07-.45,2.57c-.85.23-1.7.36-2.58.36-1.44,0-2.58-.39-3.38-1.16-.8-.77-1.21-1.83-1.24-3.17,0-1.34.39-2.4,1.16-3.17s1.83-1.16,3.17-1.16c1.16,0,2.04.31,2.68.9.64.59.95,1.44.95,2.53,0,.39-.06.79-.14,1.18l-.11.45ZM30.59,17.49c0-.62-.26-.93-.77-.93-.64,0-1.03.41-1.16,1.24l1.91.04.03-.35Z" style="fill:#fff; stroke-width:0px;"/><path d="M41.71,19.46h-4.58c.08.35.28.69.59.89.36.21.77.31,1.21.28.85-.05,1.68-.18,2.5-.44l.2-.07-.45,2.57c-.85.23-1.7.36-2.58.36-1.44,0-2.58-.39-3.38-1.16-.8-.77-1.21-1.83-1.24-3.17,0-1.34.39-2.4,1.16-3.17s1.83-1.16,3.17-1.16c1.16,0,2.04.31,2.68.9.64.59.95,1.44.95,2.53,0,.39-.06.79-.14,1.18l-.11.45ZM39.07,17.49c0-.62-.26-.93-.77-.93-.64,0-1.03.41-1.16,1.24l1.91.04.03-.35Z" style="fill:#fff; stroke-width:0px;"/><path d="M69.55,19.5h-4.58c.08.35.28.69.59.89.36.21.77.31,1.21.28.85-.05,1.68-.18,2.5-.44l.2-.07-.45,2.57c-.85.23-1.7.36-2.58.36-1.44,0-2.58-.39-3.38-1.16-.8-.77-1.21-1.83-1.24-3.17,0-1.34.39-2.4,1.16-3.17s1.83-1.16,3.17-1.16c1.16,0,2.04.31,2.68.9.64.59.95,1.44.95,2.53,0,.39-.06.79-.14,1.18l-.11.45ZM66.91,17.53c0-.62-.26-.93-.77-.93-.64,0-1.03.41-1.16,1.24l1.91.04.03-.35Z" style="fill:#fff; stroke-width:0px;"/><path d="M46.4,14.22l-.05,2.04,3.47-.04-.27,2.8-3.25-.05.13,3.89h-3.51v-11.32h7.81s-.28,2.79-.28,2.79l-4.05-.1Z" style="fill:#fff; stroke-width:0px;"/><path d="M56.62,14.61l.02,3.39-.36-.24c-.18-.1-.41-.15-.62-.13-.28,0-.57.08-.83.18-.28.13-.57.28-.8.49l.13,4.54h-3.38l.03-8.07,3.22-.21v1.55h.15c.49-1.03,1.13-1.56,1.98-1.56.25-.01.31.04.44.07Z" style="fill:#fff; stroke-width:0px;"/><path d="M60.38,10.56c.31.34.46.77.44,1.21.03.49-.15.95-.46,1.32-.34.34-.8.52-1.29.49-.44.03-.9-.13-1.21-.44-.31-.34-.44-.77-.41-1.24-.03-.49.15-.98.49-1.32s.8-.52,1.29-.49c.41,0,.85.15,1.16.46ZM57.44,14.79l3.4-.21-.03,8.28h-3.4l.03-8.07Z" style="fill:#fff; stroke-width:0px;"/><path d="M75.55,22.83l.18-4.62c0-.72-.28-1.06-.83-1.06-.28,0-.57.08-.83.23v1.75l.13,3.66h-3.43l.03-8.07,3.22-.21v1.21h.13c.57-.59,1.25-.98,2.03-1.24.89-.15,1.56.16,2.02.54.46.44.72,1.06.67,1.7l.05,6.04-3.38.05Z" style="fill:#fff; stroke-width:0px;"/><path d="M88.01,19.17l.03,1.06c0,.1,0,.21.05.31.03.05.1.1.18.08.1,0,.21-.03.28-.05l.26-.09-.36,2.02c-.49.31-1.06.49-1.62.52-.36-.03-.7-.15-.98-.36-.28-.23-.8-.88-.8-.88-.46.49-.75,1.1-1.65,1.21-1.01.05-1.96-.36-2.6-1.11-.62-.75-.95-1.75-.95-3.04,0-1.44.39-2.53,1.16-3.28.77-.75,1.83-1.13,3.17-1.13.21,0,.44.03.64.05l-.05-3.69,3.38-.23-.13,8.61ZM83.26,17c-.15.21-.26.53-.26,1.12,0,.8.11,1.48.26,1.82.13.34.44.54.77.54.31,0,.59-.13.83-.36l.03-.62-.03-2.63c-.26-.1-.52-.18-.77-.18-.31-.03-.62.08-.83.31Z" style="fill:#fff; stroke-width:0px;"/><path d="M95.92,14.84l-.5,2.69-.32-.21c-.39-.23-.8-.44-1.21-.59-.31-.13-.64-.21-.98-.21-.31,0-.46.1-.46.31,0,.15.1.31.26.39.28.15.57.26.88.36.44.15.85.34,1.26.54.34.18.64.46.88.77.26.36.39.83.36,1.26,0,.49-.13,1.01-.39,1.42-.28.46-.72.85-1.24,1.06-.67.28-1.39.41-2.11.39-1.01,0-2.01-.15-2.97-.46l.51-2.86c.44.34,1.09.75,1.6.95.41.18.85.28,1.29.31.34,0,.49-.1.49-.34,0-.15-.1-.31-.26-.39-.28-.15-.57-.28-.88-.36-.44-.15-.85-.34-1.26-.54-.34-.18-.64-.44-.88-.77-.26-.39-.39-.83-.36-1.29,0-.52.15-1.03.44-1.5.31-.46.77-.83,1.29-1.06.64-.28,1.32-.41,2.01-.39.93.05,1.73.23,2.55.52Z" style="fill:#fff; stroke-width:0px;"/><path d="M96.36,13.19h-.28v-.21h.83v.21h-.28v.77h-.26v-.77ZM97.14,12.98h.34l.23.64.23-.64h.34v.98h-.26v-.64l-.23.64h-.18l-.23-.64v.64h-.26l.03-.98Z" style="fill:#fff; stroke-width:0px;"/></g></svg>